<svg width="467" height="217" viewBox="0 0 467 217" fill="none" xmlns="http://www.w3.org/2000/svg">
<path fill-rule="evenodd" clip-rule="evenodd" d="M58.4353 31.7645C58.4474 33.8582 57.9701 35.9257 57.0415 37.8021C56.1318 39.6626 54.8935 41.3433 53.3861 42.7634C51.8763 44.189 50.1278 45.3385 48.2204 46.1594C46.3369 46.9929 44.3013 47.4277 42.2417 47.4366C40.2278 47.4364 38.2378 47.0007 36.4081 46.1594C34.5798 45.3351 32.9172 44.1843 31.5019 42.7634C30.0655 41.3274 28.8959 39.6475 28.0478 37.802C27.1759 35.9093 26.7302 33.8483 26.7424 31.7644C26.7334 29.6626 27.1787 27.5836 28.0478 25.6698C28.9054 23.7818 30.1065 22.0698 31.5898 20.6209C33.0369 19.184 34.7265 18.0144 36.5809 17.1659C38.413 16.3359 40.4024 15.9105 42.4137 15.9186C44.4783 15.9143 46.5223 16.3288 48.4221 17.1371C50.3239 17.9376 52.0576 19.0897 53.532 20.5332C55.0136 21.9894 56.2221 23.6995 57.1 25.5822C57.9997 27.5179 58.4558 29.6301 58.4353 31.7645Z" fill="#F6B219"/>
<path fill-rule="evenodd" clip-rule="evenodd" d="M45.5431 121.999L53.3758 56.4915C35.8118 55.9349 27.4489 50.4925 24.2309 77.4077L15.9375 146.781C46.89 146.781 44.3364 133.409 45.5431 121.999Z" fill="#009396"/>
<path fill-rule="evenodd" clip-rule="evenodd" d="M64.5 56.4907C81.1972 117.824 96.4549 121.62 66.2428 175.424H86.4422C88.1666 175.474 89.8719 175.053 91.3745 174.205C92.8626 173.249 94.0497 171.891 94.7987 170.288C109.768 141.172 115.867 122.013 151.646 112.785C151.845 117.172 152.72 121.502 154.24 125.623C155.88 130.111 158.428 134.211 161.727 137.668C164.981 141.031 168.908 143.671 173.25 145.415C177.923 147.302 182.924 148.24 187.963 148.173C191.953 148.2 195.938 147.85 199.862 147.127C215.799 144.081 233.5 134.402 247.964 112.731L253.438 146.78H273.637C276.249 146.78 278.165 145.271 279.383 142.252L296.623 97.4121C297.086 96.1357 297.58 94.859 298.104 93.5822C298.625 92.3051 299.119 90.9989 299.585 89.6638C299.699 90.9409 299.844 92.1883 299.99 93.4363C300.136 94.6842 300.281 95.9602 300.453 97.2373L307.071 142.252C307.214 143.528 307.717 144.736 308.522 145.736C308.85 146.081 309.247 146.351 309.688 146.531C310.128 146.711 310.601 146.796 311.076 146.78H332.147C339.431 129.458 339.694 123.899 366.489 112.099C366.593 116.967 367.513 121.784 369.212 126.348C370.869 130.812 373.45 134.877 376.785 138.276C380.023 141.513 383.911 144.026 388.192 145.649C392.706 147.356 397.498 148.212 402.324 148.173C408.758 148.199 415.116 146.78 420.929 144.022C426.817 141.263 432.095 137.356 436.454 132.531C441.051 127.429 444.671 121.526 447.136 115.115C449.822 108.136 451.161 100.71 451.082 93.232C451.185 87.6592 450.24 82.1168 448.295 76.8932C446.616 72.4334 444.027 68.3719 440.692 64.9672C437.46 61.7444 433.583 59.242 429.315 57.6243C424.812 55.913 420.029 55.0567 415.212 55.0997C408.795 55.0816 402.453 56.4783 396.637 59.1903C390.743 61.9164 385.454 65.7947 381.082 70.5968C376.489 75.6739 372.878 81.5588 370.431 87.9529C369.95 89.172 369.513 90.4121 369.122 91.6733C362.632 98.4442 357.577 96.9662 350.276 102.229L368.888 56.4907H349.036C347.501 56.4788 346 56.9455 344.743 57.8259C343.511 58.6292 342.574 59.8109 342.072 61.193L329.36 101.68C328.374 104.756 327.417 107.686 326.488 110.472C325.558 113.259 324.687 116.046 323.876 118.832C323.585 116.046 323.267 113.229 322.888 110.384C322.512 107.542 322.104 104.638 321.698 101.679L316.474 61.1046C316.391 60.4424 316.176 59.8036 315.842 59.2258C315.509 58.648 315.062 58.1429 314.53 57.7403C313.228 56.7933 311.64 56.3222 310.033 56.4058H298.363C296.802 56.4006 295.275 56.8659 293.982 57.7411C292.712 58.5223 291.741 59.7069 291.225 61.1053L276.075 101.68C274.914 104.697 273.754 107.629 272.565 110.472C271.375 113.317 270.242 116.133 269.198 118.917C269.139 116.305 269.052 113.693 268.935 111.081C268.819 108.469 268.674 105.771 268.5 102.986C268.506 102.763 268.496 102.54 268.471 102.318C268.436 102.107 268.417 101.894 268.413 101.68L265.802 61.1921C265.748 60.511 265.539 59.8511 265.192 59.2626C264.845 58.6741 264.368 58.1726 263.798 57.7961C262.494 56.9007 260.94 56.4435 259.359 56.4907H238.636C244.582 87.2162 247.177 116.195 199.544 127.366C197.513 127.801 195.439 128.006 193.362 127.975C188.313 127.975 184.501 126.553 181.926 123.708C179.343 120.862 177.978 116.364 177.865 110.213C186.548 109.453 195.155 107.997 203.605 105.858C209.348 104.454 214.84 102.174 219.889 99.0979C223.501 96.9134 226.435 93.7674 228.363 90.0114C230.013 86.4696 230.846 82.6021 230.8 78.695C230.773 75.7927 230.088 72.9344 228.797 70.3348C227.388 67.4484 225.403 64.8811 222.965 62.7909C220.178 60.4214 216.98 58.5818 213.531 57.3628C209.405 55.9056 205.051 55.1976 200.676 55.2721C196.003 55.2376 191.354 55.9229 186.89 57.3039C182.66 58.6275 178.643 60.5527 174.962 63.0206C171.308 65.4716 168.008 68.4112 165.152 71.7574C162.253 75.1542 159.787 78.8974 157.809 82.9013C155.776 87.0241 154.227 91.3685 153.194 95.8477C153.042 96.4978 152.901 97.1509 152.769 97.8068C143.815 99.9799 135.17 103.267 127.034 107.592L153.308 56.4907H131.541C130.074 56.5102 128.647 56.9759 127.452 57.8259C126.168 58.6736 125.119 59.8318 124.402 61.193L107.687 99.9371C106.932 101.622 106.148 103.304 105.335 105.018C104.521 106.729 103.768 108.44 103.073 110.125C102.898 108.44 102.664 106.758 102.375 105.103C102.084 103.45 101.767 101.794 101.416 100.112L93.5811 61.1921C93.248 59.9321 92.5752 58.7878 91.6363 57.8839C90.4329 56.8719 88.8808 56.3717 87.3129 56.4907H64.5ZM404.764 128.147C400.758 128.147 397.884 126.698 396.115 123.824C394.343 120.95 393.445 116.306 393.445 109.863C393.426 105.33 393.883 100.807 394.809 96.3695C395.569 92.5247 396.858 88.8037 398.639 85.3122C400.087 82.4173 402.147 79.872 404.677 77.8531C406.989 76.0527 409.843 75.0906 412.772 75.1246C416.778 75.1246 419.681 76.5181 421.451 79.3334C423.223 82.1469 424.092 86.8489 424.092 93.4075C424.121 97.9217 423.674 102.426 422.757 106.847C421.986 110.689 420.698 114.408 418.926 117.903C417.475 120.813 415.404 123.369 412.86 125.393C410.551 127.2 407.697 128.171 404.764 128.147ZM183.893 92.8156C182.526 92.9259 181.183 93.0473 179.865 93.1799C181.544 87.12 184.04 82.3295 187.353 78.8084C188.822 77.1354 190.629 75.7942 192.656 74.8739C194.682 73.9536 196.882 73.4754 199.108 73.4711C201.661 73.4711 203.519 74.1384 204.681 75.4732C205.77 76.6294 206.391 78.1495 206.422 79.7378C206.437 81.2 206.099 82.6443 205.436 83.9478C204.505 85.5043 203.159 86.7702 201.547 87.603C198.992 88.988 196.271 90.0411 193.449 90.737C190.857 91.4513 187.672 92.1442 183.893 92.8156Z" fill="#009396"/>
</svg>
