<svg width="418" height="418" viewBox="0 0 418 418" fill="none" xmlns="http://www.w3.org/2000/svg">
<circle cx="209.624" cy="208.262" r="205.522" fill="#009396"/>
<g clip-path="url(#clip0_991_2001)">
<path d="M113.821 259.166H259.642C260.95 259.166 262.214 258.709 263.216 257.875C264.617 256.702 296.566 229.217 298.514 169.889H141.906C139.965 223.743 110.541 249.057 110.236 249.309C108.443 250.824 107.784 253.298 108.59 255.499C109.391 257.695 111.478 259.166 113.821 259.166Z" fill="white"/>
<path d="M293.106 136.409H265.207V130.829C265.207 127.705 262.752 125.25 259.627 125.25C256.503 125.25 254.047 127.705 254.047 130.829V136.409H225.776V130.829C225.776 127.705 223.321 125.25 220.196 125.25C217.071 125.25 214.616 127.705 214.616 130.829V136.409H186.717V130.829C186.717 127.705 184.262 125.25 181.137 125.25C178.012 125.25 175.557 127.705 175.557 130.829V136.409H147.658C144.533 136.409 142.078 138.864 142.078 141.989V158.729H298.686V141.989C298.686 138.864 296.231 136.409 293.106 136.409Z" fill="white"/>
<path d="M270.383 266.43C267.353 268.953 263.55 270.326 259.643 270.326H142.094V287.066C142.094 290.15 144.589 292.646 147.674 292.646H293.122C296.206 292.646 298.702 290.15 298.702 287.066V224.517C287.944 250.91 272.932 264.297 270.383 266.43Z" fill="white"/>
</g>
<defs>
<clipPath id="clip0_991_2001">
<rect width="190.451" height="190.451" fill="white" transform="translate(108.242 113.722)"/>
</clipPath>
</defs>
</svg>
