<svg width="1265" height="811" viewBox="0 0 1265 811" fill="none" xmlns="http://www.w3.org/2000/svg">
<rect width="1264.65" height="811" fill="white"/>
<line x1="159.664" y1="678.833" x2="1201.29" y2="678.833" stroke="#D2D2D2" stroke-width="0.760312"/>
<line x1="159.664" y1="521.701" x2="1201.29" y2="521.701" stroke="#D2D2D2" stroke-width="0.760312"/>
<line x1="154.594" y1="364.57" x2="1196.22" y2="364.57" stroke="#D2D2D2" stroke-width="0.760312"/>
<line x1="149.523" y1="207.439" x2="1191.15" y2="207.439" stroke="#D2D2D2" stroke-width="0.760312"/>
<line x1="144.453" y1="62.9797" x2="1186.08" y2="62.9797" stroke="#D2D2D2" stroke-width="0.760312"/>
<rect x="159.664" y="124.184" width="15.2063" height="555.028" fill="#009396"/>
<rect x="174.867" y="306.659" width="15.2063" height="372.553" fill="#F6B219"/>
<path d="M155.177 747.488C155.498 747.708 155.937 747.919 156.495 748.122C157.069 748.308 157.745 748.401 158.522 748.401C159.316 748.401 159.967 748.274 160.474 748.021C160.98 747.75 161.369 747.353 161.639 746.829C161.91 746.289 162.096 745.604 162.197 744.777C162.298 743.949 162.349 742.969 162.349 741.837V732.181H164.63V741.33C164.63 742.665 164.562 743.889 164.427 745.005C164.292 746.12 164.022 747.091 163.616 747.919C163.211 748.73 162.602 749.355 161.791 749.795C160.997 750.234 159.933 750.454 158.598 750.454C157.753 750.454 157.01 750.361 156.368 750.175C155.726 749.989 155.134 749.71 154.594 749.338L155.177 747.488Z" fill="#4A4A4A"/>
<path d="M166.874 746.348C166.874 745.503 167.111 744.777 167.584 744.168C168.074 743.543 168.741 743.062 169.586 742.724C170.431 742.386 171.411 742.217 172.526 742.217C173.117 742.217 173.743 742.267 174.401 742.369C175.06 742.453 175.643 742.588 176.15 742.774V741.811C176.15 740.798 175.846 740.003 175.238 739.429C174.63 738.838 173.768 738.542 172.653 738.542C171.926 738.542 171.225 738.677 170.549 738.947C169.89 739.201 169.189 739.573 168.446 740.063L167.635 738.491C168.496 737.9 169.358 737.461 170.22 737.173C171.081 736.869 171.977 736.717 172.906 736.717C174.596 736.717 175.931 737.19 176.911 738.136C177.89 739.066 178.38 740.367 178.38 742.039V747.64C178.38 747.911 178.431 748.113 178.533 748.249C178.651 748.367 178.837 748.434 179.09 748.451V750.175C178.87 750.209 178.676 750.234 178.507 750.251C178.355 750.268 178.228 750.276 178.127 750.276C177.603 750.276 177.206 750.132 176.936 749.845C176.682 749.558 176.539 749.254 176.505 748.933L176.454 748.097C175.88 748.84 175.128 749.414 174.199 749.82C173.269 750.225 172.349 750.428 171.436 750.428C170.558 750.428 169.772 750.251 169.079 749.896C168.387 749.524 167.846 749.034 167.457 748.426C167.069 747.801 166.874 747.108 166.874 746.348ZM175.491 747.286C175.694 747.049 175.855 746.812 175.973 746.576C176.091 746.322 176.15 746.111 176.15 745.942V744.295C175.626 744.092 175.077 743.94 174.503 743.839C173.928 743.721 173.362 743.661 172.805 743.661C171.673 743.661 170.752 743.889 170.042 744.346C169.35 744.785 169.003 745.393 169.003 746.17C169.003 746.593 169.113 747.007 169.333 747.412C169.569 747.801 169.907 748.122 170.346 748.375C170.803 748.629 171.36 748.755 172.019 748.755C172.712 748.755 173.371 748.62 173.996 748.35C174.621 748.063 175.12 747.708 175.491 747.286Z" fill="#4A4A4A"/>
<path d="M193.174 750.175H190.944V742.774C190.944 741.372 190.724 740.35 190.285 739.708C189.862 739.049 189.212 738.719 188.333 738.719C187.725 738.719 187.117 738.871 186.508 739.176C185.917 739.48 185.385 739.894 184.912 740.417C184.456 740.924 184.126 741.516 183.923 742.191V750.175H181.693V736.945H183.721V739.784C184.075 739.159 184.532 738.618 185.089 738.162C185.647 737.706 186.28 737.351 186.99 737.097C187.7 736.844 188.443 736.717 189.22 736.717C189.981 736.717 190.614 736.861 191.121 737.148C191.645 737.418 192.05 737.807 192.338 738.314C192.642 738.804 192.853 739.387 192.971 740.063C193.106 740.738 193.174 741.473 193.174 742.267V750.175Z" fill="#4A4A4A"/>
<path d="M57.1971 68.6191C57.1971 67.9433 57.2477 67.3097 57.3491 66.7184C57.4674 66.127 57.6701 65.561 57.9574 65.0203C58.2615 64.4797 58.6839 63.9643 59.2246 63.4744C59.7652 62.9675 60.4664 62.4775 61.3281 62.0044C61.835 61.7172 62.3418 61.4469 62.8487 61.1934C63.3725 60.94 63.854 60.6697 64.2933 60.3824C64.7495 60.0952 65.1128 59.7826 65.3831 59.4447C65.6534 59.0899 65.7886 58.6844 65.7886 58.2282C65.7886 57.8396 65.6703 57.4679 65.4338 57.1131C65.2141 56.7414 64.8762 56.4457 64.42 56.226C63.9807 55.9895 63.4316 55.8712 62.7727 55.8712C62.2658 55.8712 61.8012 55.9388 61.3788 56.074C60.9733 56.2092 60.6016 56.3866 60.2636 56.6062C59.9426 56.809 59.6554 57.0286 59.402 57.2651C59.1654 57.4848 58.9627 57.6875 58.7937 57.8734L57.3998 56.3021C57.535 56.15 57.7631 55.9473 58.0841 55.6938C58.4051 55.4235 58.8106 55.1532 59.3006 54.8828C59.7906 54.6125 60.3566 54.3844 60.9986 54.1985C61.6576 53.9958 62.3756 53.8944 63.1528 53.8944C64.2004 53.8944 65.0959 54.0803 65.8393 54.452C66.5996 54.8068 67.1825 55.2968 67.588 55.9219C67.9935 56.5302 68.1962 57.2145 68.1962 57.9748C68.1962 58.6337 68.0526 59.2082 67.7654 59.6981C67.4951 60.1881 67.1403 60.619 66.701 60.9907C66.2786 61.3624 65.8308 61.6834 65.3577 61.9537C64.9016 62.2072 64.4876 62.4268 64.1159 62.6127C63.3556 62.9844 62.7051 63.3223 62.1644 63.6264C61.6238 63.9305 61.176 64.2347 60.8212 64.5388C60.4833 64.826 60.2045 65.1302 59.9849 65.4512C59.7821 65.7722 59.6301 66.1523 59.5287 66.5916H68.475V68.6191H57.1971ZM83.6092 61.1934C83.6092 62.6803 83.3304 64.0066 82.7729 65.1724C82.2153 66.3213 81.455 67.2252 80.4919 67.8842C79.5289 68.5431 78.4306 68.8726 77.1972 68.8726C75.9638 68.8726 74.8656 68.5431 73.9025 67.8842C72.9395 67.2252 72.1792 66.3213 71.6216 65.1724C71.064 64.0066 70.7853 62.6803 70.7853 61.1934C70.7853 59.7066 71.064 58.3887 71.6216 57.2398C72.1792 56.074 72.9395 55.1616 73.9025 54.5027C74.8656 53.8268 75.9638 53.4889 77.1972 53.4889C78.4306 53.4889 79.5289 53.8268 80.4919 54.5027C81.455 55.1616 82.2153 56.074 82.7729 57.2398C83.3304 58.3887 83.6092 59.7066 83.6092 61.1934ZM81.3536 61.1934C81.3536 60.0783 81.1762 59.0983 80.8214 58.2535C80.4666 57.4088 79.9766 56.7498 79.3515 56.2767C78.7263 55.8037 78.0082 55.5671 77.1972 55.5671C76.3693 55.5671 75.6428 55.8037 75.0177 56.2767C74.3925 56.7498 73.9025 57.4088 73.5477 58.2535C73.1929 59.0983 73.0155 60.0783 73.0155 61.1934C73.0155 62.3085 73.1929 63.2885 73.5477 64.1333C73.9025 64.9612 74.3925 65.6117 75.0177 66.0848C75.6428 66.5578 76.3693 66.7944 77.1972 66.7944C78.0082 66.7944 78.7263 66.5578 79.3515 66.0848C79.9766 65.6117 80.4666 64.9612 80.8214 64.1333C81.1762 63.2885 81.3536 62.3085 81.3536 61.1934ZM95.8568 68.6191L91.2695 62.1818L88.7605 64.5388V68.6191H86.5303V50.1182H88.7605V62.2072L95.6033 55.415H98.011L92.7395 60.8893L98.2644 68.6191H95.8568Z" fill="#4A4A4A"/>
<path d="M69.3531 221.188V223.216H60.2547V221.188H63.8535V211.304C63.7014 211.507 63.4649 211.727 63.1438 211.963C62.8228 212.183 62.4596 212.394 62.0541 212.597C61.6486 212.8 61.2431 212.968 60.8376 213.104C60.4321 213.222 60.0604 213.281 59.7224 213.281V211.152C60.0942 211.152 60.4997 211.051 60.9389 210.848C61.3951 210.628 61.8344 210.375 62.2568 210.088C62.6792 209.801 63.034 209.53 63.3213 209.277C63.6254 209.023 63.8028 208.846 63.8535 208.745H66.1344V221.188H69.3531ZM76.3529 226.992C75.0688 226.992 73.9114 226.688 72.8808 226.08C71.8502 225.471 71.0729 224.66 70.5492 223.647L71.9431 222.43C72.4162 223.207 73.0413 223.833 73.8185 224.306C74.6126 224.779 75.4659 225.015 76.3782 225.015C77.1554 225.015 77.8482 224.846 78.4564 224.508C79.0647 224.17 79.5462 223.706 79.901 223.114C80.2558 222.506 80.4332 221.813 80.4332 221.036C80.4332 220.276 80.2558 219.609 79.901 219.034C79.5631 218.46 79.0985 218.012 78.5071 217.691C77.9327 217.37 77.2822 217.209 76.5556 217.209C75.8291 217.209 75.1448 217.37 74.5028 217.691C73.8777 218.012 73.3623 218.468 72.9568 219.059H70.9547L72.9822 208.745H81.7258V210.797H74.6295L73.5397 216.525C73.9114 216.136 74.3761 215.832 74.9336 215.613C75.5081 215.376 76.1417 215.258 76.8344 215.258C77.9495 215.258 78.9464 215.503 79.825 215.993C80.7205 216.483 81.4216 217.159 81.9285 218.02C82.4523 218.882 82.7142 219.879 82.7142 221.011C82.7142 222.194 82.4269 223.233 81.8525 224.128C81.2949 225.041 80.5346 225.742 79.5715 226.232C78.6085 226.739 77.5356 226.992 76.3529 226.992ZM94.4699 223.216L89.8827 216.779L87.3737 219.135V223.216H85.1434V204.715H87.3737V216.804L94.2165 210.012H96.6241L91.3526 215.486L96.8776 223.216H94.4699Z" fill="#4A4A4A"/>
<path d="M69.5116 373.251V375.278H60.4132V373.251H64.012V363.367C63.8599 363.57 63.6234 363.789 63.3024 364.026C62.9813 364.245 62.6181 364.457 62.2126 364.659C61.8071 364.862 61.4016 365.031 60.9961 365.166C60.5906 365.284 60.2189 365.344 59.881 365.344V363.215C60.2527 363.215 60.6582 363.113 61.0975 362.911C61.5536 362.691 61.9929 362.437 62.4153 362.15C62.8377 361.863 63.1925 361.593 63.4798 361.339C63.7839 361.086 63.9613 360.908 64.012 360.807H66.2929V373.251H69.5116ZM84.0638 367.853C84.0638 369.339 83.7851 370.666 83.2275 371.832C82.6699 372.98 81.9096 373.884 80.9466 374.543C79.9835 375.202 78.8853 375.532 77.6519 375.532C76.4185 375.532 75.3202 375.202 74.3572 374.543C73.3941 373.884 72.6338 372.98 72.0762 371.832C71.5187 370.666 71.2399 369.339 71.2399 367.853C71.2399 366.366 71.5187 365.048 72.0762 363.899C72.6338 362.733 73.3941 361.821 74.3572 361.162C75.3202 360.486 76.4185 360.148 77.6519 360.148C78.8853 360.148 79.9835 360.486 80.9466 361.162C81.9096 361.821 82.6699 362.733 83.2275 363.899C83.7851 365.048 84.0638 366.366 84.0638 367.853ZM81.8082 367.853C81.8082 366.737 81.6308 365.758 81.276 364.913C80.9212 364.068 80.4312 363.409 79.8061 362.936C79.1809 362.463 78.4629 362.226 77.6519 362.226C76.824 362.226 76.0975 362.463 75.4723 362.936C74.8472 363.409 74.3572 364.068 74.0024 364.913C73.6476 365.758 73.4702 366.737 73.4702 367.853C73.4702 368.968 73.6476 369.948 74.0024 370.792C74.3572 371.62 74.8472 372.271 75.4723 372.744C76.0975 373.217 76.824 373.454 77.6519 373.454C78.4629 373.454 79.1809 373.217 79.8061 372.744C80.4312 372.271 80.9212 371.62 81.276 370.792C81.6308 369.948 81.8082 368.968 81.8082 367.853ZM96.3114 375.278L91.7242 368.841L89.2152 371.198V375.278H86.9849V356.777H89.2152V368.866L96.058 362.074H98.4656L93.1941 367.548L98.7191 375.278H96.3114Z" fill="#4A4A4A"/>
<path d="M77.9467 528.583C76.6626 528.583 75.5052 528.279 74.4746 527.67C73.4439 527.062 72.6667 526.251 72.1429 525.237L73.5369 524.021C74.0099 524.798 74.6351 525.423 75.4123 525.896C76.2064 526.37 77.0596 526.606 77.972 526.606C78.7492 526.606 79.4419 526.437 80.0502 526.099C80.6584 525.761 81.14 525.297 81.4948 524.705C81.8496 524.097 82.027 523.404 82.027 522.627C82.027 521.867 81.8496 521.199 81.4948 520.625C81.1569 520.05 80.6922 519.603 80.1009 519.282C79.5264 518.961 78.8759 518.8 78.1494 518.8C77.4229 518.8 76.7386 518.961 76.0966 519.282C75.4714 519.603 74.9561 520.059 74.5506 520.65H72.5484L74.5759 510.335H83.3195V512.388H76.2233L75.1335 518.116C75.5052 517.727 75.9699 517.423 76.5274 517.204C77.1019 516.967 77.7355 516.849 78.4282 516.849C79.5433 516.849 80.5402 517.094 81.4188 517.584C82.3142 518.074 83.0154 518.749 83.5223 519.611C84.0461 520.473 84.3079 521.47 84.3079 522.602C84.3079 523.784 84.0207 524.824 83.4463 525.719C82.8887 526.631 82.1284 527.333 81.1653 527.823C80.2023 528.329 79.1294 528.583 77.9467 528.583ZM96.0637 524.807L91.4765 518.369L88.9674 520.726V524.807H86.7372V506.306H88.9674V518.395L95.8102 511.603H98.2179L92.9464 517.077L98.4713 524.807H96.0637Z" fill="#4A4A4A"/>
<path d="M95.5025 669.443C95.5025 670.93 95.2237 672.257 94.6661 673.422C94.1085 674.571 93.3482 675.475 92.3852 676.134C91.4221 676.793 90.3239 677.123 89.0905 677.123C87.8571 677.123 86.7589 676.793 85.7958 676.134C84.8327 675.475 84.0724 674.571 83.5149 673.422C82.9573 672.257 82.6785 670.93 82.6785 669.443C82.6785 667.957 82.9573 666.639 83.5149 665.49C84.0724 664.324 84.8327 663.412 85.7958 662.753C86.7589 662.077 87.8571 661.739 89.0905 661.739C90.3239 661.739 91.4221 662.077 92.3852 662.753C93.3482 663.412 94.1085 664.324 94.6661 665.49C95.2237 666.639 95.5025 667.957 95.5025 669.443ZM93.2469 669.443C93.2469 668.328 93.0695 667.348 92.7146 666.504C92.3598 665.659 91.8698 665 91.2447 664.527C90.6196 664.054 89.9015 663.817 89.0905 663.817C88.2626 663.817 87.5361 664.054 86.9109 664.527C86.2858 665 85.7958 665.659 85.441 666.504C85.0862 667.348 84.9088 668.328 84.9088 669.443C84.9088 670.559 85.0862 671.539 85.441 672.383C85.7958 673.211 86.2858 673.862 86.9109 674.335C87.5361 674.808 88.2626 675.044 89.0905 675.044C89.9015 675.044 90.6196 674.808 91.2447 674.335C91.8698 673.862 92.3598 673.211 92.7146 672.383C93.0695 671.539 93.2469 670.559 93.2469 669.443Z" fill="#4A4A4A"/>
<rect x="248.367" y="187.543" width="15.2063" height="491.669" fill="#009396"/>
<rect x="263.57" y="347.209" width="15.2063" height="332.003" fill="#F6B219"/>
<path d="M243.297 750.175V732.181H255.183V734.208H245.578V740.215H253.662V742.115H245.578V750.175H243.297Z" fill="#4A4A4A"/>
<path d="M262.502 750.428C261.505 750.428 260.593 750.251 259.765 749.896C258.954 749.524 258.244 749.026 257.636 748.401C257.045 747.759 256.58 747.024 256.242 746.196C255.921 745.368 255.76 744.489 255.76 743.56C255.76 742.31 256.048 741.169 256.622 740.139C257.197 739.108 257.991 738.28 259.004 737.655C260.035 737.03 261.209 736.717 262.527 736.717C263.862 736.717 265.019 737.038 265.999 737.68C266.996 738.305 267.765 739.133 268.306 740.164C268.863 741.178 269.142 742.276 269.142 743.459C269.142 743.628 269.134 743.797 269.117 743.966C269.117 744.118 269.108 744.236 269.091 744.32H258.117C258.185 745.182 258.422 745.951 258.827 746.627C259.249 747.286 259.79 747.809 260.449 748.198C261.108 748.57 261.818 748.756 262.578 748.756C263.389 748.756 264.149 748.553 264.859 748.147C265.585 747.742 266.084 747.21 266.354 746.551L268.28 747.083C267.993 747.725 267.562 748.299 266.988 748.806C266.43 749.313 265.763 749.71 264.986 749.997C264.225 750.285 263.397 750.428 262.502 750.428ZM258.041 742.774H267.064C266.996 741.913 266.751 741.152 266.329 740.493C265.906 739.835 265.366 739.319 264.707 738.947C264.048 738.576 263.321 738.39 262.527 738.39C261.75 738.39 261.032 738.576 260.373 738.947C259.714 739.319 259.173 739.835 258.751 740.493C258.346 741.152 258.109 741.913 258.041 742.774Z" fill="#4A4A4A"/>
<path d="M278.16 750.428C277.129 750.428 276.191 750.175 275.347 749.668C274.502 749.161 273.834 748.502 273.344 747.691V750.175H271.368V731.674H273.598V739.581C274.155 738.719 274.84 738.027 275.651 737.503C276.462 736.979 277.408 736.717 278.489 736.717C279.402 736.717 280.221 736.912 280.948 737.3C281.674 737.672 282.291 738.187 282.798 738.846C283.321 739.488 283.719 740.223 283.989 741.051C284.276 741.862 284.42 742.715 284.42 743.611C284.42 744.54 284.259 745.419 283.938 746.246C283.634 747.057 283.195 747.784 282.62 748.426C282.046 749.051 281.378 749.541 280.618 749.896C279.875 750.251 279.055 750.428 278.16 750.428ZM277.602 748.502C278.261 748.502 278.869 748.367 279.427 748.097C279.985 747.826 280.466 747.463 280.872 747.007C281.277 746.551 281.59 746.027 281.809 745.435C282.029 744.844 282.139 744.236 282.139 743.611C282.139 742.749 281.953 741.938 281.581 741.178C281.226 740.417 280.719 739.809 280.061 739.353C279.419 738.88 278.667 738.643 277.805 738.643C277.18 738.643 276.597 738.787 276.056 739.074C275.516 739.361 275.034 739.742 274.612 740.215C274.206 740.671 273.868 741.178 273.598 741.735V745.562C273.682 745.985 273.86 746.373 274.13 746.728C274.4 747.083 274.73 747.395 275.119 747.666C275.507 747.919 275.913 748.122 276.335 748.274C276.774 748.426 277.197 748.502 277.602 748.502Z" fill="#4A4A4A"/>
<rect x="339.555" y="519.547" width="15.2063" height="159.666" fill="#009396"/>
<rect x="354.758" y="552.494" width="15.2063" height="126.719" fill="#F6B219"/>
<path d="M350.092 750.175V736.439L344.162 747.007H342.768L336.812 736.439V750.175H334.531V732.181H336.939L343.452 743.865L349.991 732.181H352.373V750.175H350.092Z" fill="#4A4A4A"/>
<path d="M354.911 746.348C354.911 745.504 355.148 744.777 355.621 744.169C356.111 743.544 356.778 743.062 357.623 742.724C358.468 742.386 359.448 742.217 360.563 742.217C361.154 742.217 361.779 742.268 362.438 742.369C363.097 742.454 363.68 742.589 364.187 742.775V741.812C364.187 740.798 363.883 740.004 363.275 739.429C362.666 738.838 361.805 738.542 360.69 738.542C359.963 738.542 359.262 738.678 358.586 738.948C357.927 739.201 357.226 739.573 356.482 740.063L355.672 738.492C356.533 737.9 357.395 737.461 358.257 737.174C359.118 736.87 360.014 736.718 360.943 736.718C362.633 736.718 363.967 737.191 364.947 738.137C365.927 739.066 366.417 740.367 366.417 742.04V747.641C366.417 747.911 366.468 748.114 366.569 748.249C366.688 748.367 366.873 748.435 367.127 748.452V750.175C366.907 750.209 366.713 750.234 366.544 750.251C366.392 750.268 366.265 750.277 366.164 750.277C365.64 750.277 365.243 750.133 364.973 749.846C364.719 749.559 364.576 749.254 364.542 748.933L364.491 748.097C363.917 748.84 363.165 749.415 362.236 749.82C361.306 750.226 360.385 750.429 359.473 750.429C358.594 750.429 357.809 750.251 357.116 749.896C356.423 749.525 355.883 749.035 355.494 748.426C355.105 747.801 354.911 747.109 354.911 746.348ZM363.528 747.286C363.731 747.049 363.891 746.813 364.01 746.576C364.128 746.323 364.187 746.112 364.187 745.943V744.295C363.663 744.093 363.114 743.941 362.54 743.839C361.965 743.721 361.399 743.662 360.842 743.662C359.71 743.662 358.789 743.89 358.079 744.346C357.386 744.785 357.04 745.394 357.04 746.171C357.04 746.593 357.15 747.007 357.37 747.413C357.606 747.801 357.944 748.122 358.383 748.376C358.839 748.629 359.397 748.756 360.056 748.756C360.749 748.756 361.408 748.621 362.033 748.35C362.658 748.063 363.156 747.708 363.528 747.286Z" fill="#4A4A4A"/>
<path d="M376.725 738.897C375.61 738.914 374.621 739.201 373.76 739.759C372.915 740.3 372.315 741.051 371.96 742.015V750.175H369.73V736.946H371.808V740.012C372.264 739.1 372.864 738.365 373.608 737.807C374.368 737.233 375.162 736.912 375.99 736.844C376.159 736.844 376.302 736.844 376.421 736.844C376.539 736.844 376.64 736.853 376.725 736.87V738.897Z" fill="#4A4A4A"/>
<rect x="430.844" y="428.31" width="15.2063" height="250.903" fill="#009396"/>
<rect x="446.047" y="491.669" width="15.2063" height="187.544" fill="#F6B219"/>
<path d="M433.148 732.181H435.075L442.424 750.175H439.991L437.862 744.903H430.31L428.206 750.175H425.773L433.148 732.181ZM437.356 743.129L434.112 734.816L430.766 743.129H437.356Z" fill="#4A4A4A"/>
<path d="M451.339 750.428C450.258 750.428 449.295 750.158 448.45 749.617C447.605 749.076 446.938 748.392 446.448 747.564V755.573H444.218V736.945H446.194V739.429C446.718 738.618 447.402 737.967 448.247 737.478C449.092 736.971 450.013 736.717 451.01 736.717C451.922 736.717 452.758 736.903 453.519 737.275C454.279 737.646 454.938 738.153 455.496 738.795C456.053 739.437 456.484 740.172 456.788 741C457.109 741.811 457.27 742.665 457.27 743.56C457.27 744.81 457.016 745.959 456.509 747.007C456.019 748.054 455.327 748.891 454.431 749.516C453.536 750.124 452.505 750.428 451.339 750.428ZM450.655 748.502C451.314 748.502 451.905 748.367 452.429 748.097C452.97 747.809 453.426 747.438 453.797 746.981C454.186 746.508 454.482 745.976 454.685 745.385C454.887 744.793 454.989 744.185 454.989 743.56C454.989 742.901 454.87 742.276 454.634 741.685C454.414 741.093 454.093 740.569 453.671 740.113C453.265 739.657 452.784 739.302 452.226 739.049C451.686 738.778 451.094 738.643 450.452 738.643C450.047 738.643 449.624 738.719 449.185 738.871C448.763 739.023 448.357 739.243 447.968 739.53C447.58 739.801 447.25 740.113 446.98 740.468C446.71 740.823 446.532 741.203 446.448 741.609V745.385C446.701 745.959 447.039 746.483 447.462 746.956C447.884 747.429 448.374 747.809 448.931 748.097C449.489 748.367 450.064 748.502 450.655 748.502Z" fill="#4A4A4A"/>
<path d="M466.749 738.897C465.634 738.914 464.646 739.201 463.784 739.758C462.939 740.299 462.34 741.051 461.985 742.014V750.175H459.754V736.945H461.833V740.012C462.289 739.1 462.889 738.365 463.632 737.807C464.392 737.233 465.186 736.911 466.014 736.844C466.183 736.844 466.327 736.844 466.445 736.844C466.563 736.844 466.665 736.852 466.749 736.869V738.897Z" fill="#4A4A4A"/>
<rect x="524.609" y="582.907" width="15.2063" height="96.3063" fill="#009396"/>
<rect x="539.812" y="613.319" width="15.2063" height="65.8938" fill="#F6B219"/>
<path d="M532.569 750.175V736.439L526.638 747.007H525.245L519.289 736.439V750.175H517.008V732.181H519.415L525.929 743.865L532.468 732.181H534.85V750.175H532.569Z" fill="#4A4A4A"/>
<path d="M537.388 746.348C537.388 745.504 537.624 744.777 538.097 744.169C538.587 743.544 539.255 743.062 540.1 742.724C540.944 742.386 541.924 742.217 543.039 742.217C543.631 742.217 544.256 742.268 544.915 742.369C545.574 742.454 546.157 742.589 546.664 742.775V741.812C546.664 740.798 546.359 740.004 545.751 739.429C545.143 738.838 544.281 738.542 543.166 738.542C542.44 738.542 541.738 738.678 541.063 738.948C540.404 739.201 539.702 739.573 538.959 740.063L538.148 738.492C539.01 737.9 539.871 737.461 540.733 737.174C541.595 736.87 542.49 736.718 543.42 736.718C545.109 736.718 546.444 737.191 547.424 738.137C548.404 739.066 548.894 740.367 548.894 742.04V747.641C548.894 747.911 548.945 748.114 549.046 748.249C549.164 748.367 549.35 748.435 549.603 748.452V750.175C549.384 750.209 549.189 750.234 549.021 750.251C548.868 750.268 548.742 750.277 548.64 750.277C548.117 750.277 547.72 750.133 547.449 749.846C547.196 749.559 547.052 749.254 547.018 748.933L546.968 748.097C546.393 748.84 545.641 749.415 544.712 749.82C543.783 750.226 542.862 750.429 541.95 750.429C541.071 750.429 540.285 750.251 539.593 749.896C538.9 749.525 538.359 749.035 537.971 748.426C537.582 747.801 537.388 747.109 537.388 746.348ZM546.005 747.286C546.207 747.049 546.368 746.813 546.486 746.576C546.604 746.323 546.664 746.112 546.664 745.943V744.295C546.14 744.093 545.591 743.941 545.016 743.839C544.442 743.721 543.876 743.662 543.318 743.662C542.186 743.662 541.265 743.89 540.556 744.346C539.863 744.785 539.517 745.394 539.517 746.171C539.517 746.593 539.626 747.007 539.846 747.413C540.083 747.801 540.421 748.122 540.86 748.376C541.316 748.629 541.874 748.756 542.533 748.756C543.225 748.756 543.884 748.621 544.509 748.35C545.134 748.063 545.633 747.708 546.005 747.286Z" fill="#4A4A4A"/>
<path d="M552.394 753.774C552.614 753.791 552.833 753.808 553.053 753.825C553.273 753.859 553.442 753.875 553.56 753.875C553.83 753.875 554.067 753.782 554.269 753.597C554.472 753.411 554.692 753.048 554.928 752.507C555.182 751.983 555.503 751.206 555.891 750.175L550.29 736.946H552.647L557.108 747.92L561.138 736.946H563.343L556.905 753.647C556.753 754.036 556.525 754.399 556.221 754.737C555.934 755.092 555.562 755.371 555.106 755.573C554.65 755.776 554.101 755.878 553.458 755.878C553.306 755.878 553.146 755.869 552.977 755.852C552.825 755.835 552.631 755.802 552.394 755.751V753.774Z" fill="#4A4A4A"/>
<rect x="618.375" y="248.369" width="15.2063" height="430.844" fill="#009396"/>
<rect x="633.578" y="397.897" width="15.2063" height="281.316" fill="#F6B219"/>
<path d="M613.895 747.489C614.216 747.708 614.656 747.92 615.213 748.122C615.788 748.308 616.464 748.401 617.241 748.401C618.035 748.401 618.685 748.274 619.192 748.021C619.699 747.751 620.088 747.354 620.358 746.83C620.628 746.289 620.814 745.605 620.916 744.777C621.017 743.949 621.068 742.969 621.068 741.837V732.181H623.349V741.33C623.349 742.665 623.281 743.89 623.146 745.005C623.011 746.12 622.74 747.092 622.335 747.92C621.929 748.731 621.321 749.356 620.51 749.795C619.716 750.234 618.652 750.454 617.317 750.454C616.472 750.454 615.729 750.361 615.087 750.175C614.445 749.989 613.853 749.711 613.312 749.339L613.895 747.489Z" fill="#4A4A4A"/>
<path d="M626.555 744.878V736.946H628.785V744.448C628.785 745.799 629.022 746.813 629.495 747.489C629.968 748.165 630.669 748.503 631.598 748.503C632.207 748.503 632.79 748.376 633.347 748.122C633.922 747.852 634.437 747.472 634.893 746.982C635.349 746.492 635.704 745.909 635.958 745.233V736.946H638.188V747.641C638.188 747.911 638.238 748.114 638.34 748.249C638.458 748.367 638.644 748.435 638.897 748.452V750.175C638.644 750.209 638.441 750.226 638.289 750.226C638.154 750.243 638.019 750.251 637.884 750.251C637.461 750.251 637.098 750.125 636.794 749.871C636.49 749.601 636.329 749.271 636.312 748.883L636.262 747.337C635.687 748.317 634.91 749.077 633.93 749.618C632.967 750.158 631.911 750.429 630.762 750.429C629.377 750.429 628.329 749.964 627.619 749.035C626.91 748.089 626.555 746.703 626.555 744.878Z" fill="#4A4A4A"/>
<path d="M653.13 750.175H650.9V742.775C650.9 741.372 650.68 740.35 650.241 739.708C649.819 739.049 649.168 738.72 648.289 738.72C647.681 738.72 647.073 738.872 646.465 739.176C645.873 739.48 645.341 739.894 644.868 740.418C644.412 740.925 644.082 741.516 643.88 742.192V750.175H641.649V736.946H643.677V739.784C644.032 739.159 644.488 738.618 645.045 738.162C645.603 737.706 646.237 737.351 646.946 737.098C647.656 736.844 648.399 736.718 649.176 736.718C649.937 736.718 650.57 736.861 651.077 737.149C651.601 737.419 652.007 737.807 652.294 738.314C652.598 738.804 652.809 739.387 652.927 740.063C653.063 740.739 653.13 741.474 653.13 742.268V750.175Z" fill="#4A4A4A"/>
<rect x="702.016" y="248.369" width="15.2063" height="430.844" fill="#009396"/>
<rect x="717.219" y="397.897" width="15.2063" height="281.316" fill="#F6B219"/>
<path d="M702.599 747.489C702.92 747.708 703.359 747.92 703.916 748.122C704.491 748.308 705.167 748.401 705.944 748.401C706.738 748.401 707.389 748.274 707.895 748.021C708.402 747.751 708.791 747.354 709.061 746.83C709.332 746.289 709.517 745.605 709.619 744.777C709.72 743.949 709.771 742.969 709.771 741.837V732.181H712.052V741.33C712.052 742.665 711.984 743.89 711.849 745.005C711.714 746.12 711.444 747.092 711.038 747.92C710.633 748.731 710.024 749.356 709.213 749.795C708.419 750.234 707.355 750.454 706.02 750.454C705.175 750.454 704.432 750.361 703.79 750.175C703.148 749.989 702.556 749.711 702.016 749.339L702.599 747.489Z" fill="#4A4A4A"/>
<path d="M715.258 744.878V736.946H717.488V744.448C717.488 745.799 717.725 746.813 718.198 747.489C718.671 748.165 719.372 748.503 720.302 748.503C720.91 748.503 721.493 748.376 722.05 748.122C722.625 747.852 723.14 747.472 723.596 746.982C724.052 746.492 724.407 745.909 724.661 745.233V736.946H726.891V747.641C726.891 747.911 726.942 748.114 727.043 748.249C727.161 748.367 727.347 748.435 727.601 748.452V750.175C727.347 750.209 727.144 750.226 726.992 750.226C726.857 750.243 726.722 750.251 726.587 750.251C726.164 750.251 725.801 750.125 725.497 749.871C725.193 749.601 725.032 749.271 725.015 748.883L724.965 747.337C724.39 748.317 723.613 749.077 722.633 749.618C721.67 750.158 720.614 750.429 719.465 750.429C718.08 750.429 717.032 749.964 716.323 749.035C715.613 748.089 715.258 746.703 715.258 744.878Z" fill="#4A4A4A"/>
<path d="M730.403 731.674H732.633V746.754C732.633 747.48 732.735 747.928 732.938 748.097C733.14 748.266 733.385 748.351 733.673 748.351C734.027 748.351 734.365 748.317 734.686 748.249C735.007 748.165 735.278 748.08 735.497 747.996L735.852 749.82C735.48 749.973 735.041 750.099 734.534 750.201C734.027 750.302 733.58 750.353 733.191 750.353C732.329 750.353 731.645 750.108 731.138 749.618C730.648 749.128 730.403 748.443 730.403 747.565V731.674Z" fill="#4A4A4A"/>
<rect x="793.25" y="187.543" width="15.2063" height="491.669" fill="#009396"/>
<rect x="808.453" y="367.484" width="15.2063" height="311.728" fill="#F6B219"/>
<path d="M793.023 732.181H794.95L802.299 750.175H799.866L797.737 744.903H790.185L788.081 750.175H785.648L793.023 732.181ZM797.231 743.129L793.987 734.816L790.641 743.129H797.231Z" fill="#4A4A4A"/>
<path d="M803.694 744.878V736.945H805.924V744.447C805.924 745.799 806.16 746.812 806.633 747.488C807.107 748.164 807.808 748.502 808.737 748.502C809.345 748.502 809.928 748.375 810.486 748.122C811.06 747.852 811.575 747.471 812.032 746.981C812.488 746.491 812.843 745.909 813.096 745.233V736.945H815.326V747.64C815.326 747.911 815.377 748.113 815.478 748.249C815.597 748.367 815.783 748.434 816.036 748.451V750.175C815.783 750.209 815.58 750.225 815.428 750.225C815.293 750.242 815.157 750.251 815.022 750.251C814.6 750.251 814.237 750.124 813.932 749.871C813.628 749.6 813.468 749.271 813.451 748.882L813.4 747.336C812.826 748.316 812.049 749.076 811.069 749.617C810.106 750.158 809.05 750.428 807.901 750.428C806.515 750.428 805.468 749.964 804.758 749.034C804.048 748.088 803.694 746.703 803.694 744.878Z" fill="#4A4A4A"/>
<path d="M824.059 750.327C823.164 750.327 822.336 750.149 821.576 749.795C820.832 749.423 820.19 748.924 819.65 748.299C819.109 747.657 818.687 746.931 818.382 746.12C818.095 745.309 817.952 744.464 817.952 743.585C817.952 742.656 818.095 741.777 818.382 740.95C818.687 740.122 819.109 739.395 819.65 738.77C820.207 738.128 820.858 737.63 821.601 737.275C822.345 736.903 823.172 736.717 824.085 736.717C825.183 736.717 826.138 736.988 826.949 737.528C827.777 738.069 828.469 738.753 829.027 739.581V736.945H831.004V750.023C831.004 751.273 830.7 752.329 830.091 753.191C829.5 754.052 828.689 754.703 827.658 755.142C826.645 755.598 825.513 755.826 824.262 755.826C822.775 755.826 821.559 755.564 820.613 755.041C819.667 754.517 818.881 753.807 818.256 752.912L819.548 751.771C820.072 752.549 820.748 753.131 821.576 753.52C822.421 753.909 823.316 754.103 824.262 754.103C825.073 754.103 825.817 753.951 826.492 753.647C827.185 753.36 827.734 752.912 828.14 752.304C828.562 751.695 828.773 750.935 828.773 750.023V747.691C828.283 748.502 827.608 749.144 826.746 749.617C825.901 750.09 825.006 750.327 824.059 750.327ZM824.744 748.502C825.217 748.502 825.673 748.418 826.112 748.249C826.552 748.08 826.957 747.86 827.329 747.59C827.701 747.302 828.013 746.981 828.267 746.627C828.52 746.272 828.689 745.909 828.773 745.537V741.735C828.537 741.127 828.199 740.595 827.76 740.139C827.32 739.666 826.822 739.302 826.264 739.049C825.707 738.778 825.132 738.643 824.541 738.643C823.865 738.643 823.257 738.787 822.716 739.074C822.192 739.361 821.745 739.75 821.373 740.24C821.001 740.713 820.714 741.245 820.511 741.837C820.309 742.428 820.207 743.028 820.207 743.636C820.207 744.295 820.325 744.92 820.562 745.511C820.799 746.086 821.12 746.601 821.525 747.057C821.931 747.514 822.412 747.868 822.97 748.122C823.527 748.375 824.119 748.502 824.744 748.502Z" fill="#4A4A4A"/>
<rect x="889.57" y="157.131" width="15.2063" height="522.081" fill="#009396"/>
<rect x="904.773" y="337.072" width="15.2063" height="342.141" fill="#F6B219"/>
<path d="M893.949 735.958C893.746 735.721 893.475 735.493 893.138 735.273C892.8 735.054 892.419 734.859 891.997 734.69C891.575 734.505 891.11 734.361 890.603 734.26C890.113 734.141 889.598 734.082 889.057 734.082C887.672 734.082 886.65 734.344 885.991 734.868C885.332 735.392 885.002 736.11 885.002 737.022C885.002 737.664 885.171 738.171 885.509 738.543C885.847 738.914 886.362 739.219 887.055 739.455C887.765 739.692 888.66 739.937 889.741 740.19C890.992 740.46 892.073 740.79 892.985 741.178C893.898 741.567 894.599 742.091 895.089 742.75C895.579 743.392 895.824 744.253 895.824 745.335C895.824 746.197 895.655 746.948 895.317 747.59C894.996 748.216 894.54 748.739 893.949 749.162C893.357 749.567 892.664 749.871 891.87 750.074C891.076 750.26 890.215 750.353 889.285 750.353C888.373 750.353 887.477 750.26 886.599 750.074C885.737 749.871 884.918 749.584 884.14 749.212C883.363 748.841 882.637 748.376 881.961 747.819L883.051 745.892C883.321 746.18 883.667 746.467 884.09 746.754C884.529 747.024 885.019 747.278 885.56 747.514C886.117 747.751 886.717 747.945 887.359 748.097C888.001 748.232 888.66 748.3 889.336 748.3C890.62 748.3 891.617 748.072 892.327 747.616C893.036 747.143 893.391 746.458 893.391 745.563C893.391 744.887 893.188 744.346 892.783 743.941C892.394 743.535 891.811 743.197 891.034 742.927C890.257 742.657 889.311 742.386 888.195 742.116C886.979 741.812 885.957 741.483 885.129 741.128C884.301 740.756 883.676 740.275 883.253 739.683C882.848 739.092 882.645 738.323 882.645 737.377C882.645 736.228 882.924 735.256 883.482 734.462C884.039 733.668 884.808 733.068 885.788 732.663C886.768 732.257 887.874 732.055 889.108 732.055C889.919 732.055 890.671 732.139 891.363 732.308C892.073 732.477 892.732 732.714 893.34 733.018C893.949 733.322 894.506 733.685 895.013 734.108L893.949 735.958Z" fill="#4A4A4A"/>
<path d="M904.07 750.429C903.073 750.429 902.161 750.252 901.333 749.897C900.522 749.525 899.812 749.027 899.204 748.401C898.613 747.759 898.148 747.024 897.81 746.197C897.489 745.369 897.329 744.49 897.329 743.561C897.329 742.31 897.616 741.17 898.19 740.139C898.765 739.109 899.559 738.281 900.573 737.656C901.603 737.031 902.778 736.718 904.096 736.718C905.43 736.718 906.588 737.039 907.568 737.681C908.564 738.306 909.333 739.134 909.874 740.165C910.431 741.178 910.71 742.277 910.71 743.459C910.71 743.628 910.702 743.797 910.685 743.966C910.685 744.118 910.676 744.237 910.66 744.321H899.686C899.753 745.183 899.99 745.952 900.395 746.627C900.818 747.286 901.358 747.81 902.017 748.199C902.676 748.57 903.386 748.756 904.146 748.756C904.957 748.756 905.718 748.553 906.427 748.148C907.154 747.742 907.652 747.21 907.922 746.551L909.849 747.084C909.561 747.726 909.13 748.3 908.556 748.807C907.998 749.314 907.331 749.711 906.554 749.998C905.794 750.285 904.966 750.429 904.07 750.429ZM899.61 742.775H908.632C908.564 741.913 908.319 741.153 907.897 740.494C907.475 739.835 906.934 739.32 906.275 738.948C905.616 738.576 904.89 738.391 904.096 738.391C903.318 738.391 902.6 738.576 901.941 738.948C901.282 739.32 900.742 739.835 900.319 740.494C899.914 741.153 899.677 741.913 899.61 742.775Z" fill="#4A4A4A"/>
<path d="M920.058 750.429C918.976 750.429 918.013 750.159 917.168 749.618C916.324 749.077 915.656 748.393 915.166 747.565V755.574H912.936V736.946H914.913V739.43C915.437 738.619 916.121 737.968 916.966 737.478C917.81 736.971 918.731 736.718 919.728 736.718C920.64 736.718 921.477 736.904 922.237 737.276C922.997 737.647 923.656 738.154 924.214 738.796C924.771 739.438 925.202 740.173 925.506 741.001C925.827 741.812 925.988 742.665 925.988 743.561C925.988 744.811 925.735 745.96 925.228 747.008C924.738 748.055 924.045 748.891 923.149 749.517C922.254 750.125 921.223 750.429 920.058 750.429ZM919.373 748.503C920.032 748.503 920.624 748.368 921.147 748.097C921.688 747.81 922.144 747.438 922.516 746.982C922.904 746.509 923.2 745.977 923.403 745.386C923.606 744.794 923.707 744.186 923.707 743.561C923.707 742.902 923.589 742.277 923.352 741.685C923.133 741.094 922.812 740.57 922.389 740.114C921.984 739.658 921.502 739.303 920.945 739.05C920.404 738.779 919.813 738.644 919.171 738.644C918.765 738.644 918.343 738.72 917.903 738.872C917.481 739.024 917.075 739.244 916.687 739.531C916.298 739.801 915.969 740.114 915.698 740.469C915.428 740.824 915.251 741.204 915.166 741.609V745.386C915.42 745.96 915.758 746.484 916.18 746.957C916.602 747.43 917.092 747.81 917.65 748.097C918.207 748.368 918.782 748.503 919.373 748.503Z" fill="#4A4A4A"/>
<rect x="980.797" y="91.2383" width="15.2063" height="587.975" fill="#009396"/>
<rect x="996" y="309.194" width="15.2063" height="370.019" fill="#F6B219"/>
<path d="M984.191 750.303C982.924 750.303 981.775 750.049 980.745 749.542C979.714 749.035 978.819 748.351 978.058 747.49C977.315 746.611 976.74 745.631 976.335 744.55C975.929 743.451 975.727 742.328 975.727 741.179C975.727 739.979 975.938 738.839 976.36 737.758C976.799 736.659 977.399 735.688 978.16 734.843C978.937 733.981 979.841 733.305 980.871 732.815C981.902 732.309 983.026 732.055 984.242 732.055C985.509 732.055 986.658 732.317 987.689 732.841C988.719 733.365 989.606 734.066 990.35 734.944C991.093 735.823 991.668 736.803 992.073 737.884C992.479 738.966 992.682 740.072 992.682 741.204C992.682 742.404 992.47 743.553 992.048 744.651C991.626 745.732 991.026 746.704 990.249 747.566C989.488 748.41 988.593 749.078 987.562 749.568C986.531 750.058 985.408 750.303 984.191 750.303ZM978.033 741.179C978.033 742.091 978.176 742.978 978.464 743.84C978.768 744.685 979.19 745.437 979.731 746.096C980.272 746.755 980.922 747.278 981.682 747.667C982.443 748.056 983.287 748.25 984.217 748.25C985.18 748.25 986.041 748.047 986.802 747.642C987.562 747.236 988.204 746.695 988.728 746.02C989.269 745.344 989.674 744.583 989.944 743.739C990.232 742.894 990.375 742.041 990.375 741.179C990.375 740.267 990.223 739.388 989.919 738.543C989.632 737.698 989.209 736.947 988.652 736.288C988.111 735.612 987.461 735.088 986.7 734.716C985.957 734.328 985.129 734.133 984.217 734.133C983.254 734.133 982.392 734.336 981.632 734.742C980.871 735.13 980.221 735.662 979.68 736.338C979.156 737.014 978.751 737.774 978.464 738.619C978.176 739.447 978.033 740.3 978.033 741.179Z" fill="#4A4A4A"/>
<path d="M1001.1 750.429C1000.1 750.429 999.188 750.252 998.36 749.897C997.549 749.525 996.839 749.019 996.231 748.377C995.639 747.735 995.175 747 994.837 746.172C994.516 745.344 994.355 744.465 994.355 743.536C994.355 742.286 994.634 741.145 995.192 740.114C995.749 739.084 996.535 738.264 997.549 737.656C998.562 737.031 999.737 736.718 1001.07 736.718C1002.37 736.718 1003.5 737.014 1004.47 737.605C1005.45 738.18 1006.17 738.957 1006.65 739.937L1004.47 740.621C1004.13 739.996 1003.66 739.515 1003.05 739.177C1002.44 738.822 1001.76 738.645 1001.02 738.645C1000.21 738.645 999.466 738.856 998.791 739.278C998.132 739.701 997.608 740.283 997.219 741.027C996.831 741.753 996.636 742.59 996.636 743.536C996.636 744.465 996.831 745.31 997.219 746.07C997.625 746.814 998.157 747.405 998.816 747.844C999.492 748.284 1000.24 748.503 1001.05 748.503C1001.57 748.503 1002.07 748.41 1002.54 748.224C1003.03 748.039 1003.45 747.794 1003.81 747.49C1004.18 747.168 1004.43 746.822 1004.57 746.45L1006.75 747.109C1006.48 747.751 1006.06 748.326 1005.51 748.833C1004.97 749.323 1004.32 749.711 1003.56 749.999C1002.81 750.286 1001.99 750.429 1001.1 750.429Z" fill="#4A4A4A"/>
<path d="M1015.86 749.517C1015.68 749.601 1015.43 749.711 1015.1 749.846C1014.78 749.982 1014.41 750.1 1013.99 750.201C1013.57 750.303 1013.12 750.353 1012.65 750.353C1012.11 750.353 1011.61 750.26 1011.15 750.075C1010.69 749.872 1010.33 749.568 1010.06 749.162C1009.79 748.74 1009.66 748.216 1009.66 747.591V738.695H1007.86V736.947H1009.66V732.537H1011.89V736.947H1014.85V738.695H1011.89V746.907C1011.92 747.38 1012.08 747.735 1012.37 747.971C1012.65 748.191 1012.99 748.301 1013.38 748.301C1013.82 748.301 1014.23 748.224 1014.6 748.072C1014.97 747.92 1015.21 747.811 1015.33 747.743L1015.86 749.517Z" fill="#4A4A4A"/>
<rect x="1072.04" y="126.719" width="15.2063" height="552.494" fill="#009396"/>
<rect x="1087.24" y="276.248" width="15.2063" height="402.966" fill="#F6B219"/>
<path d="M1069.25 736.388V750.175H1066.97V732.181H1068.89L1079.89 746.247V732.206H1082.18V750.175H1080.1L1069.25 736.388Z" fill="#4A4A4A"/>
<path d="M1091.42 750.429C1090.42 750.429 1089.52 750.251 1088.71 749.896C1087.9 749.525 1087.19 749.026 1086.6 748.401C1086.01 747.759 1085.56 747.024 1085.24 746.196C1084.91 745.368 1084.75 744.498 1084.75 743.586C1084.75 742.657 1084.91 741.778 1085.24 740.95C1085.56 740.122 1086.01 739.396 1086.6 738.771C1087.19 738.128 1087.9 737.63 1088.71 737.275C1089.54 736.904 1090.45 736.718 1091.44 736.718C1092.42 736.718 1093.32 736.904 1094.13 737.275C1094.94 737.63 1095.64 738.128 1096.23 738.771C1096.84 739.396 1097.31 740.122 1097.63 740.95C1097.95 741.778 1098.11 742.657 1098.11 743.586C1098.11 744.498 1097.95 745.368 1097.63 746.196C1097.31 747.024 1096.85 747.759 1096.26 748.401C1095.67 749.026 1094.96 749.525 1094.13 749.896C1093.32 750.251 1092.42 750.429 1091.42 750.429ZM1087.03 743.611C1087.03 744.524 1087.23 745.351 1087.62 746.095C1088.02 746.838 1088.56 747.43 1089.21 747.869C1089.87 748.291 1090.61 748.503 1091.42 748.503C1092.23 748.503 1092.96 748.283 1093.62 747.844C1094.3 747.404 1094.83 746.813 1095.22 746.07C1095.63 745.309 1095.83 744.473 1095.83 743.56C1095.83 742.648 1095.63 741.82 1095.22 741.077C1094.83 740.333 1094.3 739.742 1093.62 739.303C1092.96 738.863 1092.23 738.644 1091.42 738.644C1090.61 738.644 1089.87 738.872 1089.21 739.328C1088.56 739.767 1088.02 740.359 1087.62 741.102C1087.23 741.846 1087.03 742.682 1087.03 743.611Z" fill="#4A4A4A"/>
<path d="M1103.91 750.175L1098.72 736.946H1101.05L1105.21 748.046L1109.36 736.946H1111.54L1106.35 750.175H1103.91Z" fill="#4A4A4A"/>
<rect x="1170.88" y="63.3599" width="15.2063" height="615.853" fill="#009396"/>
<rect x="1186.08" y="276.248" width="15.2063" height="402.966" fill="#F6B219"/>
<path d="M1163.08 750.366V732.372H1169.31C1171.24 732.372 1172.84 732.778 1174.13 733.589C1175.43 734.383 1176.4 735.464 1177.04 736.833C1177.68 738.184 1178 739.688 1178 741.344C1178 743.169 1177.65 744.757 1176.94 746.108C1176.23 747.46 1175.22 748.508 1173.92 749.251C1172.62 749.995 1171.08 750.366 1169.31 750.366H1163.08ZM1175.7 741.344C1175.7 739.992 1175.44 738.793 1174.94 737.745C1174.45 736.697 1173.73 735.878 1172.78 735.287C1171.84 734.695 1170.68 734.4 1169.31 734.4H1165.36V748.339H1169.31C1170.7 748.339 1171.86 748.035 1172.81 747.426C1173.75 746.801 1174.47 745.965 1174.96 744.917C1175.45 743.853 1175.7 742.662 1175.7 741.344ZM1186.46 750.62C1185.47 750.62 1184.55 750.442 1183.73 750.087C1182.92 749.716 1182.21 749.217 1181.6 748.592C1181.01 747.95 1180.54 747.215 1180.2 746.387C1179.88 745.559 1179.72 744.681 1179.72 743.751C1179.72 742.501 1180.01 741.361 1180.58 740.33C1181.16 739.299 1181.95 738.472 1182.97 737.846C1184 737.221 1185.17 736.909 1186.49 736.909C1187.82 736.909 1188.98 737.23 1189.96 737.872C1190.96 738.497 1191.73 739.325 1192.27 740.355C1192.82 741.369 1193.1 742.467 1193.1 743.65C1193.1 743.819 1193.1 743.988 1193.08 744.157C1193.08 744.309 1193.07 744.427 1193.05 744.512H1182.08C1182.15 745.373 1182.38 746.142 1182.79 746.818C1183.21 747.477 1183.75 748.001 1184.41 748.389C1185.07 748.761 1185.78 748.947 1186.54 748.947C1187.35 748.947 1188.11 748.744 1188.82 748.339C1189.55 747.933 1190.05 747.401 1190.32 746.742L1192.24 747.274C1191.95 747.916 1191.52 748.491 1190.95 748.998C1190.39 749.505 1189.72 749.902 1188.95 750.189C1188.19 750.476 1187.36 750.62 1186.46 750.62ZM1182 742.966H1191.03C1190.96 742.104 1190.71 741.344 1190.29 740.685C1189.87 740.026 1189.33 739.511 1188.67 739.139C1188.01 738.767 1187.28 738.581 1186.49 738.581C1185.71 738.581 1184.99 738.767 1184.33 739.139C1183.68 739.511 1183.13 740.026 1182.71 740.685C1182.31 741.344 1182.07 742.104 1182 742.966ZM1201.18 750.62C1200.19 750.62 1199.27 750.442 1198.45 750.087C1197.64 749.716 1196.93 749.209 1196.32 748.567C1195.73 747.925 1195.26 747.19 1194.92 746.362C1194.6 745.534 1194.44 744.655 1194.44 743.726C1194.44 742.476 1194.72 741.335 1195.28 740.305C1195.84 739.274 1196.62 738.455 1197.64 737.846C1198.65 737.221 1199.82 736.909 1201.16 736.909C1202.46 736.909 1203.59 737.204 1204.55 737.796C1205.53 738.37 1206.26 739.147 1206.73 740.127L1204.55 740.812C1204.22 740.186 1203.74 739.705 1203.14 739.367C1202.53 739.012 1201.85 738.835 1201.11 738.835C1200.3 738.835 1199.55 739.046 1198.88 739.468C1198.22 739.891 1197.69 740.474 1197.31 741.217C1196.92 741.944 1196.72 742.78 1196.72 743.726C1196.72 744.655 1196.92 745.5 1197.31 746.261C1197.71 747.004 1198.24 747.595 1198.9 748.035C1199.58 748.474 1200.32 748.694 1201.13 748.694C1201.66 748.694 1202.16 748.601 1202.63 748.415C1203.12 748.229 1203.54 747.984 1203.9 747.68C1204.27 747.359 1204.52 747.012 1204.66 746.641L1206.84 747.3C1206.56 747.942 1206.15 748.516 1205.59 749.023C1205.05 749.513 1204.4 749.902 1203.64 750.189C1202.9 750.476 1202.08 750.62 1201.18 750.62Z" fill="#4A4A4A"/>
</svg>
