<svg width="830" height="811" viewBox="0 0 830 811" fill="none" xmlns="http://www.w3.org/2000/svg">
<path d="M805.322 404.79C805.322 620.505 630.45 795.377 414.735 795.377C199.02 795.377 24.1484 620.505 24.1484 404.79C24.1484 189.075 199.02 14.2031 414.735 14.2031C630.45 14.2031 805.322 189.075 805.322 404.79ZM182.002 404.79C182.002 533.325 286.2 637.523 414.735 637.523C543.27 637.523 647.468 533.325 647.468 404.79C647.468 276.255 543.27 172.057 414.735 172.057C286.2 172.057 182.002 276.255 182.002 404.79Z" fill="#13BDC0"/>
<path d="M805.322 404.79C805.322 467.457 790.243 529.204 761.359 584.817C732.475 640.431 690.633 688.278 639.367 724.318C588.101 760.359 528.915 783.535 466.808 791.89C404.7 800.245 341.494 793.532 282.526 772.32C223.558 751.108 170.56 716.019 128.007 670.016C85.4529 624.012 54.5931 568.445 38.0329 508.005C21.4727 447.566 19.6983 384.029 32.8594 322.76C46.0206 261.49 73.7309 204.287 113.651 155.98L235.333 256.535C211.546 285.319 195.035 319.404 187.193 355.912C179.35 392.419 180.408 430.278 190.275 466.291C200.143 502.304 218.531 535.414 243.886 562.826C269.242 590.237 300.822 611.145 335.958 623.785C371.094 636.424 408.756 640.423 445.763 635.445C482.77 630.467 518.036 616.658 548.583 595.183C579.13 573.708 604.062 545.198 621.273 512.06C638.483 478.923 647.468 442.13 647.468 404.79H805.322Z" fill="#F6B219"/>
<path d="M805.322 404.79C805.322 490.214 777.317 573.283 725.597 641.27C673.877 709.258 601.294 758.415 518.968 781.212C436.641 804.008 349.112 799.187 269.787 767.485C190.463 735.784 123.719 678.952 79.7796 605.695L215.15 524.5C241.332 568.151 281.102 602.015 328.367 620.904C375.633 639.793 427.788 642.666 476.843 629.083C525.897 615.499 569.146 586.209 599.964 545.698C630.781 505.187 647.468 455.69 647.468 404.79H805.322Z" fill="#707070"/>
<path d="M655.616 97.325C724.518 151.306 773.292 226.867 794.112 311.885C814.932 396.903 806.591 486.45 770.428 566.161C734.265 645.871 672.375 711.125 594.688 751.452C517.002 791.78 428.021 804.844 342.021 788.548L371.408 633.454C422.651 643.164 475.671 635.38 521.961 611.35C568.251 587.321 605.128 548.439 626.676 500.944C648.224 453.448 653.194 400.09 640.789 349.432C628.383 298.774 599.321 253.75 558.265 221.585L655.616 97.325Z" fill="#009396"/>
</svg>
