<svg width="419" height="418" viewBox="0 0 419 418" fill="none" xmlns="http://www.w3.org/2000/svg">
<circle cx="210.335" cy="208.262" r="205.522" fill="#F6B219"/>
<g clip-path="url(#clip0_991_2003)">
<path d="M280.501 202.607H265.242C266.797 206.865 267.647 211.46 267.647 216.25V273.918C267.647 275.915 267.3 277.832 266.667 279.615H291.893C301.316 279.615 308.982 271.949 308.982 262.526V231.088C308.982 215.384 296.205 202.607 280.501 202.607Z" fill="white"/>
<path d="M153.03 216.249C153.03 211.459 153.88 206.864 155.435 202.606H140.177C124.472 202.606 111.695 215.383 111.695 231.088V262.525C111.695 271.948 119.361 279.614 128.784 279.614H154.01C153.378 277.831 153.03 275.914 153.03 273.917V216.249Z" fill="white"/>
<path d="M227.787 187.768H192.903C177.199 187.768 164.422 200.545 164.422 216.25V273.918C164.422 277.064 166.972 279.614 170.118 279.614H250.572C253.718 279.614 256.268 277.064 256.268 273.918V216.25C256.268 200.545 243.491 187.768 227.787 187.768Z" fill="white"/>
<path d="M210.354 112.249C191.467 112.249 176.102 127.614 176.102 146.502C176.102 159.313 183.172 170.502 193.615 176.376C198.568 179.162 204.278 180.754 210.354 180.754C216.431 180.754 222.141 179.162 227.094 176.376C237.536 170.502 244.607 159.312 244.607 146.502C244.607 127.615 229.241 112.249 210.354 112.249Z" fill="white"/>
<path d="M150.195 144.175C136.069 144.175 124.578 155.667 124.578 169.792C124.578 183.917 136.069 195.408 150.195 195.408C153.778 195.408 157.19 194.666 160.289 193.332C165.648 191.025 170.066 186.941 172.8 181.825C174.719 178.235 175.811 174.139 175.811 169.792C175.811 155.667 164.32 144.175 150.195 144.175Z" fill="white"/>
<path d="M270.499 144.175C256.374 144.175 244.883 155.667 244.883 169.792C244.883 174.139 245.975 178.235 247.894 181.825C250.628 186.941 255.046 191.025 260.405 193.332C263.504 194.666 266.916 195.408 270.499 195.408C284.624 195.408 296.116 183.917 296.116 169.792C296.116 155.667 284.624 144.175 270.499 144.175Z" fill="white"/>
</g>
<defs>
<clipPath id="clip0_991_2003">
<rect width="197.301" height="197.301" fill="white" transform="translate(111.68 97.2803)"/>
</clipPath>
</defs>
</svg>
