<svg width="419" height="418" viewBox="0 0 419 418" fill="none" xmlns="http://www.w3.org/2000/svg">
<circle cx="210.03" cy="208.262" r="205.522" fill="#009396"/>
<path d="M212.982 161.162H164.104C160.026 161.162 156.727 164.465 156.727 168.539C156.727 172.614 160.026 175.917 164.104 175.917H212.982C217.06 175.917 220.359 172.614 220.359 168.539C220.359 164.465 217.06 161.162 212.982 161.162Z" fill="white"/>
<path d="M193.615 195.204H164.104C160.026 195.204 156.727 198.507 156.727 202.581C156.727 206.656 160.026 209.959 164.104 209.959H193.615C197.693 209.959 200.993 206.656 200.993 202.581C200.993 198.507 197.693 195.204 193.615 195.204Z" fill="white"/>
<path d="M193.615 229.247H164.104C160.026 229.247 156.727 232.55 156.727 236.624C156.727 240.699 160.026 244.002 164.104 244.002H193.615C197.693 244.002 200.993 240.699 200.993 236.624C200.993 232.55 197.693 229.247 193.615 229.247Z" fill="white"/>
<path d="M232.303 119.733H172.835C165.111 119.733 157.863 122.727 152.423 128.167L130.211 150.375C124.85 155.732 121.781 163.146 121.781 170.715V256.592C121.781 272.497 134.721 285.437 150.629 285.437H232.098C248.993 305.659 282.659 297.628 288.021 271.222C289.184 265.611 288.666 206.485 288.666 207.232H290.893C294.971 207.232 298.27 203.929 298.27 199.854C298.27 195.78 294.971 192.477 290.893 192.477H261.144V148.581C261.144 132.673 248.204 119.733 232.303 119.733ZM222.324 192.477C218.246 192.477 214.947 195.78 214.947 199.855C214.947 203.929 218.246 207.232 222.324 207.232H224.551C224.517 211.562 224.315 265.837 225.032 270.118C225.062 270.303 225.05 270.498 225.084 270.681H150.629C142.855 270.681 136.537 264.363 136.537 256.592V170.715C136.537 167.029 138.035 163.42 140.643 160.808L162.856 138.599C165.471 135.987 169.102 134.489 172.835 134.489H232.303C240.07 134.489 246.388 140.811 246.388 148.581V192.477H222.324ZM273.911 207.236V231.361H239.306V207.236C240.317 207.236 274.668 207.236 273.911 207.236Z" fill="white"/>
</svg>
