<svg width="418" height="418" viewBox="0 0 418 418" fill="none" xmlns="http://www.w3.org/2000/svg">
<circle cx="209.741" cy="208.262" r="205.522" fill="#F6B219"/>
<g clip-path="url(#clip0_991_2007)">
<mask id="mask0_991_2007" style="mask-type:luminance" maskUnits="userSpaceOnUse" x="89" y="89" width="240" height="240">
<path d="M89.1562 89.0586H328.932V328.835H89.1562V89.0586Z" fill="white"/>
</mask>
<g mask="url(#mask0_991_2007)">
<path d="M249.009 198.956C265.593 198.956 278.881 185.569 278.881 168.984C278.881 152.4 265.593 139.012 249.009 139.012C232.424 139.012 219.037 152.4 219.037 168.984C219.037 185.569 232.424 198.956 249.009 198.956ZM169.083 198.956C185.668 198.956 198.955 185.569 198.955 168.984C198.955 152.4 185.668 139.012 169.083 139.012C152.499 139.012 139.111 152.4 139.111 168.984C139.111 185.569 152.499 198.956 169.083 198.956ZM169.083 218.938C145.805 218.938 99.1484 230.627 99.1484 253.905V268.891C99.1484 274.386 103.644 278.882 109.139 278.882H229.027C234.522 278.882 239.018 274.386 239.018 268.891V253.905C239.018 230.627 192.361 218.938 169.083 218.938ZM249.009 218.938C246.111 218.938 242.814 219.137 239.318 219.437C239.517 219.537 239.617 219.737 239.717 219.837C251.107 228.129 258.999 239.219 258.999 253.905V268.891C258.999 272.388 258.3 275.785 257.201 278.882H308.953C314.447 278.882 318.943 274.386 318.943 268.891V253.905C318.943 230.627 272.287 218.938 249.009 218.938Z" fill="white"/>
</g>
</g>
<defs>
<clipPath id="clip0_991_2007">
<rect width="239.776" height="239.776" fill="white" transform="translate(89.1641 89.0601)"/>
</clipPath>
</defs>
</svg>
